Homewrecker 2010 DvDRip H264 Feel-Free 

Genre:Biography | Comedy | Crime
Language:English
IMDb:http://www.imdb.com/title/tt1557769/
Source:DVD

General:

Complete name :Homewrecker 2010 DvDRip H264 Feel-Free
Format : MPEG-4
Format profile : Base Media
Codec ID : mp42
File size : 809 MiB
Duration : 1h 26mn
Overall bit rate : 1 302 Kbps

Video #1
Codec ID : avc1
Codec ID/Info : Advanced Video Coding
Duration : 1h 26mn
Bit rate mode : Variable
Bit rate : 917 Kbps
Width : 720 pixels
Height : 304 pixels
Display aspect ratio : 2.35:1
Frame rate mode : Constant
Frame rate : 23.976 fps
Resolution : 24 bits
Colorimetry : 4:2:0
Scan type : Progressive
Bits/(Pixel*Frame) : 0.175
Stream size : 570 MiB (70%)

Audio #2
ID : 2
Format : AAC
Format/Info : Advanced Audio Codec
Format version : Version 4
Format profile : LC
Format settings, SBR : No
Codec ID : 40
Duration : 1h 26mn
Bit rate mode : Constant
Bit rate : 384 Kbps
Channel(s) : 6 channels
Channel positions : Front: L C R, Rear: L R, LFE
Sampling rate : 48.0 KHz
Resolution : 16 bits
Stream size : 237 MiB (29%)

Plot:

Mike is a locksmith. He's also a prisoner on work release, but you wouldn't know it. He's just trying to focus on his house calls and reconcile with his ex-girlfriend-until Margo hijacks his day.


Screenshots:

 
http://www.leetleech.org/images/18748349328496772274.png
 
http://www.leetleech.org/images/76278600894253825038.png
 
http://www.leetleech.org/images/11410210907661785857.png


ENJOY!